<svg version="1.1" xmlns="http://www.w3.org/2000/svg" xmlns:xlink="http://www.w3.org/1999/xlink" width="492" height="244"><defs><linearGradient id="hiXcwpdzQPfB" x1="0px" x2="32px" y1="0px" y2="0px" gradientUnits="userSpaceOnUse"><stop offset="0" stop-color="#6e916e"/><stop offset="1" stop-color="#7f807f"/></linearGradient><linearGradient id="NeeFBxqrAKwB" x1="0px" x2="32px" y1="0px" y2="0px" gradientUnits="userSpaceOnUse"><stop offset="0" stop-color="#807f7f"/><stop offset="1" stop-color="#a05f5f"/></linearGradient></defs><g><rect fill="#000000" stroke="none" x="0" y="0" width="492" height="244"/><g transform="scale(1,1) translate(-58,-78)"><path fill="none" stroke="#6e916e" paint-order="fill stroke markers" d=" M 352 128 L 400 128" stroke-linecap="round" stroke-miterlimit="10" stroke-width="3" stroke-dasharray=""/><path fill="none" stroke="#7f807f" paint-order="fill stroke markers" d=" M 432 128 L 480 128" stroke-linecap="round" stroke-miterlimit="10" stroke-width="3" stroke-dasharray=""/><g transform="matrix(1,0,0,1,400,128)"><path fill="none" stroke="url(#hiXcwpdzQPfB)" paint-order="fill stroke markers" d=" M 0 0 L 2 6 L 6 -6 L 10 6 L 14 -6 L 18 6 L 22 -6 L 26 6 L 30 -6 L 32 0" stroke-linecap="round" stroke-miterlimit="10" stroke-width="3" stroke-dasharray=""/></g><text fill="#ffffff" stroke="none" font-family="sans-serif" font-size="12px" font-style="normal" font-weight="normal" text-decoration="normal" x="410" y="118" text-anchor="start" dominant-baseline="alphabetic">1k</text><path fill="none" stroke="#a05f5f" paint-order="fill stroke markers" d=" M 224 128 L 284 128" stroke-linecap="round" stroke-miterlimit="10" stroke-width="3" stroke-dasharray=""/><path fill="none" stroke="#a05f5f" paint-order="fill stroke markers" d=" M 284 116 L 284 140" stroke-linecap="round" stroke-miterlimit="10" stroke-width="3" stroke-dasharray=""/><path fill="none" stroke="#6e916e" paint-order="fill stroke markers" d=" M 352 128 L 292 128" stroke-linecap="round" stroke-miterlimit="10" stroke-width="3" stroke-dasharray=""/><path fill="none" stroke="#6e916e" paint-order="fill stroke markers" d=" M 292 116 L 292 140" stroke-linecap="round" stroke-miterlimit="10" stroke-width="3" stroke-dasharray=""/><text fill="#ffffff" stroke="none" font-family="sans-serif" font-size="12px" font-style="normal" font-weight="normal" text-decoration="normal" x="275" y="114" text-anchor="start" dominant-baseline="alphabetic">10μF</text><path fill="none" stroke="#807f7f" paint-order="fill stroke markers" d=" M 128 128 L 160 128" stroke-linecap="round" stroke-miterlimit="10" stroke-width="3" stroke-dasharray=""/><path fill="none" stroke="#a05f5f" paint-order="fill stroke markers" d=" M 192 128 L 224 128" stroke-linecap="round" stroke-miterlimit="10" stroke-width="3" stroke-dasharray=""/><g transform="matrix(1,0,0,1,160,128) scale(1,1)"><path fill="none" stroke="url(#NeeFBxqrAKwB)" paint-order="fill stroke markers" d=" M 0 0 L 0 6.53144959545255e-16 A 5.333333333333333 5.333333333333333 0 0 1 10.666666666666666 0 L 10.666666666666666 0" stroke-linecap="round" stroke-miterlimit="10" stroke-width="3" stroke-dasharray=""/><path fill="none" stroke="url(#NeeFBxqrAKwB)" paint-order="fill stroke markers" d=" M 10.666666666666666 0 L 10.666666666666668 6.53144959545255e-16 A 5.333333333333333 5.333333333333333 0 0 1 21.333333333333332 0 L 21.333333333333332 0" stroke-linecap="round" stroke-miterlimit="10" stroke-width="3" stroke-dasharray=""/><path fill="none" stroke="url(#NeeFBxqrAKwB)" paint-order="fill stroke markers" d=" M 21.333333333333332 0 L 21.333333333333336 6.53144959545255e-16 A 5.333333333333333 5.333333333333333 0 0 1 32 0 L 32 0" stroke-linecap="round" stroke-miterlimit="10" stroke-width="3" stroke-dasharray=""/></g><text fill="#ffffff" stroke="none" font-family="sans-serif" font-size="12px" font-style="normal" font-weight="normal" text-decoration="normal" x="169" y="118" text-anchor="start" dominant-baseline="alphabetic">1H</text><path fill="none" stroke="#807f7f" paint-order="fill stroke markers" d=" M 240 272 L 279 272" stroke-linecap="round" stroke-miterlimit="10" stroke-width="3" stroke-dasharray=""/><path fill="none" stroke="#7f807f" paint-order="fill stroke markers" d=" M 313 272 L 352 272" stroke-linecap="round" stroke-miterlimit="10" stroke-width="3" stroke-dasharray=""/><path fill="none" stroke="#808080" paint-order="fill stroke markers" d=" M 312.66 272 A 16.66 16.66 0 1 1 312.6599916700007 271.98334000277663" stroke-linecap="round" stroke-miterlimit="10" stroke-width="3" stroke-dasharray=""/><path fill="none" stroke="#808080" paint-order="fill stroke markers" d=" M 286 272 L 287 270 L 288 268 L 289 266 L 290 265 L 291 265 L 292 265 L 293 266 L 294 268 L 295 270 L 296 272 L 297 274 L 298 276 L 299 278 L 300 279 L 301 279 L 302 279 L 303 278 L 304 276 L 305 274 L 306 272" stroke-linecap="round" stroke-miterlimit="10" stroke-width="3" stroke-dasharray=""/><text fill="#ffffff" stroke="none" font-family="sans-serif" font-size="12px" font-style="normal" font-weight="normal" text-decoration="normal" x="282" y="253" text-anchor="start" dominant-baseline="alphabetic">40Hz</text><text fill="#ffffff" stroke="none" font-family="sans-serif" font-size="12px" font-style="normal" font-weight="normal" text-decoration="normal" x="315" y="266" text-anchor="start" dominant-baseline="alphabetic">*</text><path fill="none" stroke="#807f7f" paint-order="fill stroke markers" d=" M 128 128 L 128 272" stroke-linecap="round" stroke-miterlimit="10" stroke-width="3" stroke-dasharray=""/><text fill="#ffffff" stroke="none" font-family="sans-serif" font-size="12px" font-style="normal" font-weight="normal" text-decoration="normal" x="134" y="206" text-anchor="start" dominant-baseline="alphabetic"></text><path fill="none" stroke="#807f7f" paint-order="fill stroke markers" d=" M 128 272 L 240 272" stroke-linecap="round" stroke-miterlimit="10" stroke-width="3" stroke-dasharray=""/><text fill="#ffffff" stroke="none" font-family="sans-serif" font-size="12px" font-style="normal" font-weight="normal" text-decoration="normal" x="184" y="266" text-anchor="start" dominant-baseline="alphabetic"></text><path fill="none" stroke="#7f807f" paint-order="fill stroke markers" d=" M 352 272 L 480 272" stroke-linecap="round" stroke-miterlimit="10" stroke-width="3" stroke-dasharray=""/><text fill="#ffffff" stroke="none" font-family="sans-serif" font-size="12px" font-style="normal" font-weight="normal" text-decoration="normal" x="416" y="266" text-anchor="start" dominant-baseline="alphabetic"></text><path fill="none" stroke="#7f807f" paint-order="fill stroke markers" d=" M 480 128 L 480 272" stroke-linecap="round" stroke-miterlimit="10" stroke-width="3" stroke-dasharray=""/><text fill="#ffffff" stroke="none" font-family="sans-serif" font-size="12px" font-style="normal" font-weight="normal" text-decoration="normal" x="486" y="206" text-anchor="start" dominant-baseline="alphabetic"></text></g></g></svg>